<svg xmlns="http://www.w3.org/2000/svg" width="1200" height="630" viewBox="0 0 1200 630">
  <defs>
    <linearGradient id="bg" x1="0%" y1="0%" x2="100%" y2="100%">
      <stop offset="0%" style="stop-color:#0f0f23"/>
      <stop offset="50%" style="stop-color:#1a1a3e"/>
      <stop offset="100%" style="stop-color:#0f0f23"/>
    </linearGradient>
    <linearGradient id="accent" x1="0%" y1="0%" x2="100%" y2="0%">
      <stop offset="0%" style="stop-color:#f97316"/>
      <stop offset="100%" style="stop-color:#fb923c"/>
    </linearGradient>
    <linearGradient id="green" x1="0%" y1="0%" x2="100%" y2="0%">
      <stop offset="0%" style="stop-color:#22c55e"/>
      <stop offset="100%" style="stop-color:#4ade80"/>
    </linearGradient>
    <filter id="glow">
      <feGaussianBlur stdDeviation="3" result="blur"/>
      <feMerge><feMergeNode in="blur"/><feMergeNode in="SourceGraphic"/></feMerge>
    </filter>
  </defs>

  <!-- Background -->
  <rect width="1200" height="630" fill="url(#bg)"/>

  <!-- Grid pattern -->
  <g opacity="0.03" stroke="white" stroke-width="1">
    <line x1="0" y1="0" x2="0" y2="630"/><line x1="60" y1="0" x2="60" y2="630"/>
    <line x1="120" y1="0" x2="120" y2="630"/><line x1="180" y1="0" x2="180" y2="630"/>
    <line x1="240" y1="0" x2="240" y2="630"/><line x1="300" y1="0" x2="300" y2="630"/>
    <line x1="360" y1="0" x2="360" y2="630"/><line x1="420" y1="0" x2="420" y2="630"/>
    <line x1="480" y1="0" x2="480" y2="630"/><line x1="540" y1="0" x2="540" y2="630"/>
    <line x1="600" y1="0" x2="600" y2="630"/><line x1="660" y1="0" x2="660" y2="630"/>
    <line x1="720" y1="0" x2="720" y2="630"/><line x1="780" y1="0" x2="780" y2="630"/>
    <line x1="840" y1="0" x2="840" y2="630"/><line x1="900" y1="0" x2="900" y2="630"/>
    <line x1="960" y1="0" x2="960" y2="630"/><line x1="1020" y1="0" x2="1020" y2="630"/>
    <line x1="1080" y1="0" x2="1080" y2="630"/><line x1="1140" y1="0" x2="1140" y2="630"/>
    <line x1="0" y1="60" x2="1200" y2="60"/><line x1="0" y1="120" x2="1200" y2="120"/>
    <line x1="0" y1="180" x2="1200" y2="180"/><line x1="0" y1="240" x2="1200" y2="240"/>
    <line x1="0" y1="300" x2="1200" y2="300"/><line x1="0" y1="360" x2="1200" y2="360"/>
    <line x1="0" y1="420" x2="1200" y2="420"/><line x1="0" y1="480" x2="1200" y2="480"/>
    <line x1="0" y1="540" x2="1200" y2="540"/><line x1="0" y1="600" x2="1200" y2="600"/>
  </g>

  <!-- Decorative circles -->
  <circle cx="100" cy="100" r="200" fill="#f97316" opacity="0.05"/>
  <circle cx="1100" cy="530" r="250" fill="#22c55e" opacity="0.05"/>
  <circle cx="600" cy="315" r="350" fill="#3b82f6" opacity="0.03"/>

  <!-- Left side: Logo + Title -->
  <text x="80" y="200" font-family="system-ui, -apple-system, sans-serif" font-size="72" font-weight="800" fill="white" filter="url(#glow)">🪝 HookSniff</text>

  <text x="80" y="270" font-family="system-ui, -apple-system, sans-serif" font-size="32" font-weight="400" fill="#94a3b8">Reliable Webhook Delivery</text>
  <text x="80" y="310" font-family="system-ui, -apple-system, sans-serif" font-size="32" font-weight="400" fill="#94a3b8">for Developers</text>

  <!-- Feature pills -->
  <rect x="80" y="350" rx="20" ry="20" width="180" height="40" fill="#f97316" opacity="0.15"/>
  <text x="170" y="376" font-family="system-ui, sans-serif" font-size="16" font-weight="600" fill="#fb923c" text-anchor="middle">Auto Retries</text>

  <rect x="280" y="350" rx="20" ry="20" width="200" height="40" fill="#22c55e" opacity="0.15"/>
  <text x="380" y="376" font-family="system-ui, sans-serif" font-size="16" font-weight="600" fill="#4ade80" text-anchor="middle">HMAC Signatures</text>

  <rect x="500" y="350" rx="20" ry="20" width="180" height="40" fill="#3b82f6" opacity="0.15"/>
  <text x="590" y="376" font-family="system-ui, sans-serif" font-size="16" font-weight="600" fill="#60a5fa" text-anchor="middle">Real-time</text>

  <rect x="700" y="350" rx="20" ry="20" width="140" height="40" fill="#a855f7" opacity="0.15"/>
  <text x="770" y="376" font-family="system-ui, sans-serif" font-size="16" font-weight="600" fill="#c084fc" text-anchor="middle">11 SDKs</text>

  <!-- Right side: Terminal mockup -->
  <rect x="640" y="130" rx="12" ry="12" width="480" height="190" fill="#1e1e2e" stroke="#333" stroke-width="1"/>
  <rect x="640" y="130" rx="12" ry="12" width="480" height="32" fill="#2d2d3f"/>
  <circle cx="660" cy="146" r="6" fill="#ff5f57"/>
  <circle cx="680" cy="146" r="6" fill="#febc2e"/>
  <circle cx="700" cy="146" r="6" fill="#28c840"/>
  <text x="720" y="151" font-family="monospace" font-size="13" fill="#666">webhook-demo.sh</text>

  <text x="660" y="182" font-family="monospace" font-size="14" fill="#6c7086">$ curl -X POST /v1/webhooks \</text>
  <text x="660" y="202" font-family="monospace" font-size="14" fill="#6c7086">  -H "Authorization: Bearer sk_..." \</text>
  <text x="660" y="222" font-family="monospace" font-size="14" fill="#6c7086">  -d '{"event":"order.created"}'</text>
  <text x="660" y="252" font-family="monospace" font-size="14" fill="#22c55e">✓ Delivered in 47ms • Signature verified</text>
  <text x="660" y="272" font-family="monospace" font-size="14" fill="#6c7086">  Retry #1 scheduled if failure</text>

  <!-- Stats bar -->
  <rect x="0" y="420" width="1200" height="90" fill="white" opacity="0.03"/>

  <text x="120" y="465" font-family="system-ui, sans-serif" font-size="36" font-weight="800" fill="#f97316" text-anchor="middle">10K</text>
  <text x="120" y="490" font-family="system-ui, sans-serif" font-size="14" fill="#64748b" text-anchor="middle">Free webhooks/mo</text>

  <text x="360" y="465" font-family="system-ui, sans-serif" font-size="36" font-weight="800" fill="#22c55e" text-anchor="middle">$0</text>
  <text x="360" y="490" font-family="system-ui, sans-serif" font-size="14" fill="#64748b" text-anchor="middle">Hosting cost</text>

  <text x="600" y="465" font-family="system-ui, sans-serif" font-size="36" font-weight="800" fill="#3b82f6" text-anchor="middle">30+</text>
  <text x="600" y="490" font-family="system-ui, sans-serif" font-size="14" fill="#64748b" text-anchor="middle">API endpoints</text>

  <text x="840" y="465" font-family="system-ui, sans-serif" font-size="36" font-weight="800" fill="#a855f7" text-anchor="middle">11</text>
  <text x="840" y="490" font-family="system-ui, sans-serif" font-size="14" fill="#64748b" text-anchor="middle">SDKs</text>

  <text x="1080" y="465" font-family="system-ui, sans-serif" font-size="36" font-weight="800" fill="#ec4899" text-anchor="middle">41</text>
  <text x="1080" y="490" font-family="system-ui, sans-serif" font-size="14" fill="#64748b" text-anchor="middle">Dashboard pages</text>

  <!-- Bottom: Tech stack + CTA -->
  <text x="80" y="555" font-family="system-ui, sans-serif" font-size="18" font-weight="600" fill="#475569">Built with:</text>
  <text x="80" y="585" font-family="monospace" font-size="16" fill="#f97316">Rust</text>
  <text x="130" y="585" font-family="monospace" font-size="16" fill="#64748b"> • </text>
  <text x="152" y="585" font-family="monospace" font-size="16" fill="#3b82f6">Next.js 15</text>
  <text x="270" y="585" font-family="monospace" font-size="16" fill="#64748b"> • </text>
  <text x="292" y="585" font-family="monospace" font-size="16" fill="#22c55e">PostgreSQL</text>
  <text x="420" y="585" font-family="monospace" font-size="16" fill="#64748b"> • </text>
  <text x="442" y="585" font-family="monospace" font-size="16" fill="#a855f7">OpenTelemetry</text>

  <rect x="820" y="550" rx="25" ry="25" width="300" height="50" fill="url(#accent)"/>
  <text x="970" y="581" font-family="system-ui, sans-serif" font-size="20" font-weight="700" fill="white" text-anchor="middle">Try Free → hooksniff.vercel.app</text>

</svg>